<svg width="260" height="258" viewBox="0 0 260 258" fill="none" xmlns="http://www.w3.org/2000/svg">
<path d="M116.062 232.183C115.052 236.937 111.987 238.657 105.962 237.376C100.484 236.212 98.0356 233.688 98.7394 229.319L103.943 230.425C103.864 231.757 104.725 232.615 106.877 233.072C109.889 233.713 110.668 232.549 110.976 231.102C111.288 229.634 111.034 228.231 108.041 227.595C105.889 227.137 104.75 227.59 104.276 228.86L99.072 227.753C100.21 223.456 103.459 222.122 108.956 223.291C114.981 224.572 117.077 227.409 116.062 232.183Z" fill="white"/>
<path d="M89.8287 216.958C95.4561 219.463 96.9161 222.675 94.9312 227.133C92.9545 231.573 89.5991 232.618 83.9717 230.113C78.3625 227.615 76.8842 224.396 78.8528 219.974C80.8296 215.534 84.2195 214.46 89.8287 216.958ZM88.039 220.977C85.2436 219.733 84.2052 220.737 83.6033 222.089C83.0094 223.423 82.9476 224.84 85.7613 226.093C88.575 227.346 89.5788 226.37 90.1808 225.018C90.7909 223.647 90.8345 222.222 88.039 220.977Z" fill="white"/>
<path d="M61.4025 216.328L57.1956 213.271L65.4246 201.945L70.9259 205.942L70.9573 216.175L75.8124 209.492L80.0193 212.549L71.7903 223.875L66.289 219.878L66.2576 209.645L61.4025 216.328Z" fill="white"/>
<path d="M41.5345 196.692L44.8043 193.747L48.8191 198.206L55.9533 191.783L59.4328 195.647L52.2986 202.071L56.3134 206.529L53.0435 209.474L41.5345 196.692Z" fill="white"/>
<path d="M43.574 173.488L41.8716 175.579L44.8516 180.741L47.514 180.312L50.374 185.266L35.3496 187.243L31.4896 180.557L40.714 168.534L43.574 173.488ZM41.0539 181.363L39.4339 178.557L36.5373 182.1L41.0539 181.363Z" fill="white"/>
<path d="M33.4553 168.896C28.8332 170.397 25.8109 168.604 23.9074 162.745C22.1769 157.419 23.1386 154.036 27.2743 152.461L28.9183 157.521C27.7247 158.119 27.4122 159.293 28.0921 161.385C29.0438 164.315 30.4409 164.407 31.8484 163.95C33.275 163.487 34.3636 162.565 33.418 159.655C32.7381 157.563 31.7762 156.803 30.44 157.026L28.796 151.967C33.0867 150.804 35.8659 152.95 37.6026 158.295C39.5062 164.154 38.0965 167.388 33.4553 168.896Z" fill="white"/>
<path d="M18.5589 132.019L22.9348 131.559L23.562 137.527L33.1094 136.523L33.6529 141.695L24.1055 142.698L24.7327 148.665L20.3568 149.125L18.5589 132.019Z" fill="white"/>
<path d="M26.0302 100.76L25.8117 97.8085L23.8998 100.068L21.7693 97.6937L24.2043 96.0244L21.8743 95.6879L22.8631 92.6446L24.946 93.7419L23.9572 90.9602L27.0765 90.2914L27.295 93.2434L29.2069 90.9836L31.3374 93.3582L28.9024 95.0274L31.2324 95.3639L30.2436 98.4073L28.1607 97.3099L29.1495 100.092L26.0302 100.76Z" fill="white"/>
<path d="M46.9618 65.7133C43.3501 62.4614 43.3925 58.9471 47.5143 54.3693C51.2615 50.2077 54.6719 49.3492 58.1038 52.1433L54.544 56.0968C53.4292 55.3622 52.2563 55.6786 50.7842 57.3135C48.7232 59.6024 49.3414 60.8587 50.4412 61.849C51.556 62.8527 52.8982 63.3346 54.9458 61.0606C56.4179 59.4257 56.595 58.2127 55.7331 57.1674L59.2928 53.2139C62.4452 56.3483 61.9761 59.8283 58.2156 64.0048C54.0938 68.5826 50.5883 68.9787 46.9618 65.7133Z" fill="white"/>
<path d="M73.2637 50.6064C68.2801 54.2271 64.7689 53.8858 61.9005 49.9378C59.0439 46.0059 59.816 42.5773 64.7996 38.9565C69.7669 35.3475 73.2943 35.6771 76.1392 39.5927C78.9959 43.5246 78.231 46.9974 73.2637 50.6064ZM70.6774 47.0467C73.153 45.2481 72.8023 43.8466 71.9323 42.6492C71.0742 41.4681 69.8776 40.7058 67.3858 42.5162C64.8941 44.3266 65.2375 45.6839 66.1074 46.8813C66.9891 48.0948 68.2018 48.8453 70.6774 47.0467Z" fill="white"/>
<path d="M88.0213 26.3034L92.7717 24.1883L98.466 36.978L92.2539 39.7438L83.3764 34.6546L86.7361 42.2005L81.9857 44.3155L76.2913 31.5259L82.5035 28.7601L91.3809 33.8493L88.0213 26.3034Z" fill="white"/>
<path d="M114.961 18.9149L115.876 23.2187L110.007 24.4662L112.003 33.8564L106.917 34.9375L104.921 25.5473L99.0519 26.7948L98.1371 22.4909L114.961 18.9149Z" fill="white"/>
<path d="M134.625 33L133.665 30.48H127.705L126.745 33H121.025L126.825 19H134.545L140.345 33H134.625ZM129.065 26.88H132.305L130.685 22.6L129.065 26.88Z" fill="white"/>
<path d="M143.072 25.8172C144.083 21.0634 147.147 19.343 153.173 20.6238C158.65 21.7881 161.099 24.3123 160.395 28.6815L155.192 27.5754C155.27 26.2427 154.41 25.385 152.258 24.9276C149.245 24.2872 148.466 25.4507 148.159 26.8984C147.847 28.3656 148.101 29.769 151.094 30.4052C153.246 30.8626 154.385 30.4096 154.859 29.1404L160.063 30.2465C158.924 34.5438 155.676 35.8776 150.179 34.7091C144.154 33.4284 142.058 30.5906 143.072 25.8172Z" fill="white"/>
<path d="M182.457 31.3542L180.667 35.3738L175.186 32.9333L171.281 41.7034L166.531 39.5884L170.436 30.8183L164.954 28.3779L166.744 24.3583L182.457 31.3542Z" fill="white"/>
<path d="M205.793 53.4542L208.458 54.741L207.457 51.9554L210.579 51.2976L210.807 54.241L212.264 52.3914L214.405 54.7694L212.413 56.0245L215.317 56.5591L214.336 59.5949L211.67 58.3081L212.671 61.0937L209.55 61.7515L209.322 58.8081L207.865 60.6578L205.724 58.2797L207.716 57.0246L204.812 56.4901L205.793 53.4542Z" fill="white"/>
<path d="M225.679 89.1044C230.302 87.6026 233.324 89.3964 235.227 95.2549C236.958 100.581 235.996 103.964 231.86 105.539L230.216 100.479C231.41 99.881 231.723 98.7069 231.043 96.6146C230.091 93.6854 228.694 93.5925 227.286 94.0499C225.86 94.5134 224.771 95.4349 225.717 98.3451C226.397 100.437 227.359 101.197 228.695 100.974L230.339 106.033C226.048 107.196 223.269 105.05 221.532 99.7048C219.629 93.8463 221.038 90.6124 225.679 89.1044Z" fill="white"/>
<path d="M225.61 119.436C224.966 113.31 227.018 110.44 231.871 109.93C236.704 109.422 239.287 111.805 239.931 117.931C240.573 124.038 238.524 126.928 233.711 127.434C228.877 127.942 226.252 125.543 225.61 119.436ZM229.986 118.977C230.306 122.02 231.695 122.417 233.167 122.262C234.619 122.109 235.877 121.454 235.555 118.391C235.234 115.328 233.886 114.947 232.414 115.102C230.923 115.258 229.666 115.933 229.986 118.977Z" fill="white"/>
<path d="M239.278 144.368L238.734 149.539L224.811 148.076L225.522 141.313L234.368 136.17L226.153 135.306L226.697 130.135L240.62 131.598L239.909 138.361L231.063 143.504L239.278 144.368Z" fill="white"/>
<path d="M232.207 171.393L228.022 170.033L229.876 164.327L220.746 161.361L222.353 156.415L231.483 159.382L233.337 153.675L237.522 155.035L232.207 171.393Z" fill="white"/>
<path d="M211.093 181.228L213.755 181.657L216.735 176.495L215.033 174.404L217.893 169.45L227.117 181.473L223.257 188.159L208.233 186.182L211.093 181.228ZM219.173 179.473L217.553 182.279L222.069 183.016L219.173 179.473Z" fill="white"/>
<path d="M212.173 192.287C215.785 195.539 215.742 199.053 211.62 203.631C207.873 207.792 204.463 208.651 201.031 205.857L204.591 201.903C205.706 202.638 206.879 202.321 208.351 200.687C210.412 198.398 209.793 197.141 208.694 196.151C207.579 195.147 206.237 194.665 204.189 196.939C202.717 198.574 202.54 199.787 203.402 200.833L199.842 204.786C196.69 201.652 197.159 198.172 200.919 193.995C205.041 189.417 208.546 189.021 212.173 192.287Z" fill="white"/>
<path d="M187.686 223.627L185.1 220.067L189.954 216.541L184.311 208.774L188.518 205.718L194.161 213.484L199.015 209.957L201.601 213.517L187.686 223.627Z" fill="white"/>
<path d="M156.88 232.786L154.432 234.452L157.345 234.977L156.354 238.01L153.691 236.736L154.565 238.922L151.435 239.587L151.344 237.235L149.429 239.482L147.29 237.115L149.737 235.449L146.824 234.924L147.816 231.891L150.479 233.165L149.605 230.979L152.735 230.314L152.826 232.666L154.741 230.419L156.88 232.786Z" fill="white"/>
</svg>
