<svg width="138" height="138" viewBox="0 0 138 138" fill="none" xmlns="http://www.w3.org/2000/svg">
<rect x="1" y="1" width="136" height="136" rx="68" fill="url(#paint0_linear_26_2007)"/>
<rect x="1" y="1" width="136" height="136" rx="68" stroke="url(#paint1_linear_26_2007)" stroke-width="2"/>
<rect x="17" y="17" width="104" height="104" rx="52" fill="url(#paint2_linear_26_2007)"/>
<rect x="17" y="17" width="104" height="104" rx="52" stroke="url(#paint3_linear_26_2007)" stroke-width="2"/>
<rect x="35" y="35" width="68" height="68" rx="34" fill="url(#paint4_linear_26_2007)"/>
<rect x="35" y="35" width="68" height="68" rx="34" stroke="url(#paint5_linear_26_2007)" stroke-width="2"/>
<path fill-rule="evenodd" clip-rule="evenodd" d="M59.3187 55.7136V56.928C57.8526 57.1377 56.4018 57.395 54.9679 57.6982C54.4104 57.816 54.0451 58.3527 54.14 58.9145C54.8631 63.1981 58.4319 66.5135 62.8363 66.8473C63.9493 67.7563 65.2721 68.4201 66.7214 68.7549C66.5814 70.4098 66.02 71.9433 65.145 73.25H64.0996C62.6326 73.25 61.4433 74.4392 61.4433 75.9062V79.625H60.3807C58.6203 79.625 57.1932 81.0521 57.1932 82.8125C57.1932 83.3993 57.6689 83.875 58.2557 83.875H79.5057C80.0925 83.875 80.5682 83.3993 80.5682 82.8125C80.5682 81.0521 79.1411 79.625 77.3807 79.625H76.3183V75.9062C76.3183 74.4392 75.1291 73.25 73.6621 73.25H72.616C71.7412 71.9434 71.1802 70.41 71.0402 68.755C72.4898 68.4203 73.8129 67.7564 74.9261 66.8473C79.3305 66.5135 82.8993 63.1981 83.6224 58.9145C83.7173 58.3527 83.352 57.816 82.7945 57.6982C81.3606 57.395 79.9098 57.1377 78.4437 56.928V55.7136C78.4437 55.1776 78.0445 54.7256 77.5127 54.6593C74.6846 54.3066 71.8039 54.125 68.8812 54.125C65.9585 54.125 63.0778 54.3066 60.2497 54.6593C59.7179 54.7256 59.3187 55.1776 59.3187 55.7136ZM59.3187 59.4375C59.3187 61.1321 59.76 62.7241 60.5331 64.1043C58.6105 63.2437 57.1195 61.5905 56.4767 59.5606C57.4169 59.3784 58.3644 59.2165 59.3187 59.0754V59.4375ZM78.4437 59.4375V59.0754C79.398 59.2165 80.3455 59.3784 81.2857 59.5606C80.6429 61.5905 79.1518 63.2437 77.2293 64.1043C78.0024 62.7241 78.4437 61.1321 78.4437 59.4375Z" fill="white"/>
<defs>
<linearGradient id="paint0_linear_26_2007" x1="69" y1="0" x2="69" y2="138" gradientUnits="userSpaceOnUse">
<stop stop-color="#1A1A1A"/>
<stop offset="0.565952" stop-color="#1A1A1A" stop-opacity="0"/>
</linearGradient>
<linearGradient id="paint1_linear_26_2007" x1="69" y1="0" x2="69" y2="138" gradientUnits="userSpaceOnUse">
<stop stop-color="#333333"/>
<stop offset="0.745602" stop-color="#333333" stop-opacity="0"/>
</linearGradient>
<linearGradient id="paint2_linear_26_2007" x1="69" y1="16" x2="69" y2="122" gradientUnits="userSpaceOnUse">
<stop stop-color="#1A1A1A"/>
<stop offset="0.658009" stop-color="#1A1A1A" stop-opacity="0"/>
</linearGradient>
<linearGradient id="paint3_linear_26_2007" x1="69" y1="16" x2="69" y2="122" gradientUnits="userSpaceOnUse">
<stop stop-color="#333333"/>
<stop offset="0.82384" stop-color="#333333" stop-opacity="0"/>
</linearGradient>
<linearGradient id="paint4_linear_26_2007" x1="69" y1="36" x2="69" y2="102" gradientUnits="userSpaceOnUse">
<stop stop-color="#1A1A1A"/>
<stop offset="1" stop-color="#1A1A1A" stop-opacity="0"/>
</linearGradient>
<linearGradient id="paint5_linear_26_2007" x1="69" y1="36" x2="69" y2="102" gradientUnits="userSpaceOnUse">
<stop stop-color="#333333"/>
<stop offset="0.84964" stop-color="#333333" stop-opacity="0"/>
</linearGradient>
</defs>
</svg>
