<svg width="150" height="151" viewBox="0 0 150 151" fill="none" xmlns="http://www.w3.org/2000/svg">
<g filter="url(#filter0_i_26_3025)">
<path d="M75 31.75L87.5 53.625H112.5L125 31.75H100L87.5 9.875L75 31.75Z" fill="white" fill-opacity="0.02"/>
<path d="M75 31.75L87.5 53.625H112.5L125 31.75H100L87.5 9.875L75 31.75Z" fill="url(#paint0_linear_26_3025)" fill-opacity="0.2"/>
<path d="M112.5 97.375L100 75.5L112.5 53.625H137.5L125 75.5L137.5 97.375H112.5Z" fill="white" fill-opacity="0.02"/>
<path d="M112.5 97.375L100 75.5L112.5 53.625H137.5L125 75.5L137.5 97.375H112.5Z" fill="url(#paint1_linear_26_3025)" fill-opacity="0.2"/>
<path d="M75 119.25L87.5 97.375H112.5L125 119.25H100L87.5 141.125L75 119.25Z" fill="white" fill-opacity="0.02"/>
<path d="M75 119.25L87.5 97.375H112.5L125 119.25H100L87.5 141.125L75 119.25Z" fill="url(#paint2_linear_26_3025)" fill-opacity="0.2"/>
<path d="M75 119.25L62.5 97.375H37.5L25 119.25H50L62.5 141.125L75 119.25Z" fill="white" fill-opacity="0.02"/>
<path d="M75 119.25L62.5 97.375H37.5L25 119.25H50L62.5 141.125L75 119.25Z" fill="url(#paint3_linear_26_3025)" fill-opacity="0.2"/>
<path d="M37.5 97.375L50 75.5L37.5 53.625H12.5L25 75.5L12.5 97.375H37.5Z" fill="white" fill-opacity="0.02"/>
<path d="M37.5 97.375L50 75.5L37.5 53.625H12.5L25 75.5L12.5 97.375H37.5Z" fill="url(#paint4_linear_26_3025)" fill-opacity="0.2"/>
<path d="M75 31.75L62.5 53.625H37.5L25 31.75H50L62.5 9.875L75 31.75Z" fill="white" fill-opacity="0.02"/>
<path d="M75 31.75L62.5 53.625H37.5L25 31.75H50L62.5 9.875L75 31.75Z" fill="url(#paint5_linear_26_3025)" fill-opacity="0.2"/>
</g>
<defs>
<filter id="filter0_i_26_3025" x="12.5" y="9.875" width="125" height="131.25" filterUnits="userSpaceOnUse" color-interpolation-filters="sRGB">
<feFlood flood-opacity="0" result="BackgroundImageFix"/>
<feBlend mode="normal" in="SourceGraphic" in2="BackgroundImageFix" result="shape"/>
<feColorMatrix in="SourceAlpha" type="matrix" values="0 0 0 0 0 0 0 0 0 0 0 0 0 0 0 0 0 0 127 0" result="hardAlpha"/>
<feOffset/>
<feGaussianBlur stdDeviation="6"/>
<feComposite in2="hardAlpha" operator="arithmetic" k2="-1" k3="1"/>
<feColorMatrix type="matrix" values="0 0 0 0 1 0 0 0 0 1 0 0 0 0 1 0 0 0 0.2 0"/>
<feBlend mode="normal" in2="shape" result="effect1_innerShadow_26_3025"/>
</filter>
<linearGradient id="paint0_linear_26_3025" x1="75" y1="-53.239" x2="75" y2="141.125" gradientUnits="userSpaceOnUse">
<stop stop-color="white"/>
<stop offset="0.773658" stop-color="white" stop-opacity="0"/>
</linearGradient>
<linearGradient id="paint1_linear_26_3025" x1="75" y1="-53.239" x2="75" y2="141.125" gradientUnits="userSpaceOnUse">
<stop stop-color="white"/>
<stop offset="0.773658" stop-color="white" stop-opacity="0"/>
</linearGradient>
<linearGradient id="paint2_linear_26_3025" x1="75" y1="-53.239" x2="75" y2="141.125" gradientUnits="userSpaceOnUse">
<stop stop-color="white"/>
<stop offset="0.773658" stop-color="white" stop-opacity="0"/>
</linearGradient>
<linearGradient id="paint3_linear_26_3025" x1="75" y1="-53.239" x2="75" y2="141.125" gradientUnits="userSpaceOnUse">
<stop stop-color="white"/>
<stop offset="0.773658" stop-color="white" stop-opacity="0"/>
</linearGradient>
<linearGradient id="paint4_linear_26_3025" x1="75" y1="-53.239" x2="75" y2="141.125" gradientUnits="userSpaceOnUse">
<stop stop-color="white"/>
<stop offset="0.773658" stop-color="white" stop-opacity="0"/>
</linearGradient>
<linearGradient id="paint5_linear_26_3025" x1="75" y1="-53.239" x2="75" y2="141.125" gradientUnits="userSpaceOnUse">
<stop stop-color="white"/>
<stop offset="0.773658" stop-color="white" stop-opacity="0"/>
</linearGradient>
</defs>
</svg>
