<svg width="150" height="151" viewBox="0 0 150 151" fill="none" xmlns="http://www.w3.org/2000/svg">
<g filter="url(#filter0_i_26_3044)">
<path d="M75 128.625L109.375 147.375L143.75 128.625V84.875L109.375 106.75L75 84.875V128.625Z" fill="white" fill-opacity="0.02"/>
<path d="M75 128.625L109.375 147.375L143.75 128.625V84.875L109.375 106.75L75 84.875V128.625Z" fill="url(#paint0_linear_26_3044)" fill-opacity="0.2"/>
<path d="M6.25 84.875L40.625 66.125L75 84.875L40.625 106.75V147.375L6.25 128.625V84.875Z" fill="white" fill-opacity="0.02"/>
<path d="M6.25 84.875L40.625 66.125L75 84.875L40.625 106.75V147.375L6.25 128.625V84.875Z" fill="url(#paint1_linear_26_3044)" fill-opacity="0.2"/>
<path d="M109.375 66.125L75 84.875V44.25L40.625 22.375L75 3.625L109.375 22.375V66.125Z" fill="white" fill-opacity="0.02"/>
<path d="M109.375 66.125L75 84.875V44.25L40.625 22.375L75 3.625L109.375 22.375V66.125Z" fill="url(#paint2_linear_26_3044)" fill-opacity="0.2"/>
</g>
<defs>
<filter id="filter0_i_26_3044" x="6.25" y="3.625" width="137.5" height="143.75" filterUnits="userSpaceOnUse" color-interpolation-filters="sRGB">
<feFlood flood-opacity="0" result="BackgroundImageFix"/>
<feBlend mode="normal" in="SourceGraphic" in2="BackgroundImageFix" result="shape"/>
<feColorMatrix in="SourceAlpha" type="matrix" values="0 0 0 0 0 0 0 0 0 0 0 0 0 0 0 0 0 0 127 0" result="hardAlpha"/>
<feOffset/>
<feGaussianBlur stdDeviation="6"/>
<feComposite in2="hardAlpha" operator="arithmetic" k2="-1" k3="1"/>
<feColorMatrix type="matrix" values="0 0 0 0 1 0 0 0 0 1 0 0 0 0 1 0 0 0 0.2 0"/>
<feBlend mode="normal" in2="shape" result="effect1_innerShadow_26_3044"/>
</filter>
<linearGradient id="paint0_linear_26_3044" x1="75" y1="-65.4999" x2="75" y2="147.375" gradientUnits="userSpaceOnUse">
<stop stop-color="white"/>
<stop offset="0.773658" stop-color="white" stop-opacity="0"/>
</linearGradient>
<linearGradient id="paint1_linear_26_3044" x1="75" y1="-65.4999" x2="75" y2="147.375" gradientUnits="userSpaceOnUse">
<stop stop-color="white"/>
<stop offset="0.773658" stop-color="white" stop-opacity="0"/>
</linearGradient>
<linearGradient id="paint2_linear_26_3044" x1="75" y1="-65.4999" x2="75" y2="147.375" gradientUnits="userSpaceOnUse">
<stop stop-color="white"/>
<stop offset="0.773658" stop-color="white" stop-opacity="0"/>
</linearGradient>
</defs>
</svg>
