<svg width="150" height="151" viewBox="0 0 150 151" fill="none" xmlns="http://www.w3.org/2000/svg">
<g filter="url(#filter0_i_26_2986)">
<path d="M43.75 75.5L75 44.25L106.25 75.5L75 106.75L43.75 75.5Z" fill="white" fill-opacity="0.02"/>
<path d="M43.75 75.5L75 44.25L106.25 75.5L75 106.75L43.75 75.5Z" fill="url(#paint0_linear_26_2986)" fill-opacity="0.2"/>
<path d="M137.5 38V75.5L75 13H112.5L137.5 38Z" fill="white" fill-opacity="0.02"/>
<path d="M137.5 38V75.5L75 13H112.5L137.5 38Z" fill="url(#paint1_linear_26_2986)" fill-opacity="0.2"/>
<path d="M137.5 113V75.5L75 138H112.5L137.5 113Z" fill="white" fill-opacity="0.02"/>
<path d="M137.5 113V75.5L75 138H112.5L137.5 113Z" fill="url(#paint2_linear_26_2986)" fill-opacity="0.2"/>
<path d="M12.5 113V75.5L75 138H37.5L12.5 113Z" fill="white" fill-opacity="0.02"/>
<path d="M12.5 113V75.5L75 138H37.5L12.5 113Z" fill="url(#paint3_linear_26_2986)" fill-opacity="0.2"/>
<path d="M12.5 38V75.5L75 13H37.5L12.5 38Z" fill="white" fill-opacity="0.02"/>
<path d="M12.5 38V75.5L75 13H37.5L12.5 38Z" fill="url(#paint4_linear_26_2986)" fill-opacity="0.2"/>
</g>
<defs>
<filter id="filter0_i_26_2986" x="12.5" y="13" width="125" height="125" filterUnits="userSpaceOnUse" color-interpolation-filters="sRGB">
<feFlood flood-opacity="0" result="BackgroundImageFix"/>
<feBlend mode="normal" in="SourceGraphic" in2="BackgroundImageFix" result="shape"/>
<feColorMatrix in="SourceAlpha" type="matrix" values="0 0 0 0 0 0 0 0 0 0 0 0 0 0 0 0 0 0 127 0" result="hardAlpha"/>
<feOffset/>
<feGaussianBlur stdDeviation="6"/>
<feComposite in2="hardAlpha" operator="arithmetic" k2="-1" k3="1"/>
<feColorMatrix type="matrix" values="0 0 0 0 1 0 0 0 0 1 0 0 0 0 1 0 0 0 0.2 0"/>
<feBlend mode="normal" in2="shape" result="effect1_innerShadow_26_2986"/>
</filter>
<linearGradient id="paint0_linear_26_2986" x1="75" y1="-47.1086" x2="75" y2="138" gradientUnits="userSpaceOnUse">
<stop stop-color="white"/>
<stop offset="0.773658" stop-color="white" stop-opacity="0"/>
</linearGradient>
<linearGradient id="paint1_linear_26_2986" x1="75" y1="-47.1086" x2="75" y2="138" gradientUnits="userSpaceOnUse">
<stop stop-color="white"/>
<stop offset="0.773658" stop-color="white" stop-opacity="0"/>
</linearGradient>
<linearGradient id="paint2_linear_26_2986" x1="75" y1="-47.1086" x2="75" y2="138" gradientUnits="userSpaceOnUse">
<stop stop-color="white"/>
<stop offset="0.773658" stop-color="white" stop-opacity="0"/>
</linearGradient>
<linearGradient id="paint3_linear_26_2986" x1="75" y1="-47.1086" x2="75" y2="138" gradientUnits="userSpaceOnUse">
<stop stop-color="white"/>
<stop offset="0.773658" stop-color="white" stop-opacity="0"/>
</linearGradient>
<linearGradient id="paint4_linear_26_2986" x1="75" y1="-47.1086" x2="75" y2="138" gradientUnits="userSpaceOnUse">
<stop stop-color="white"/>
<stop offset="0.773658" stop-color="white" stop-opacity="0"/>
</linearGradient>
</defs>
</svg>
